<svg version="1.2" xmlns="http://www.w3.org/2000/svg" viewBox="0 0 1134 618" width="2202" height="1200"><style>.a{opacity:0;fill:#221f1f}.b{opacity:.1;fill:#221f1f}.c{opacity:.2;fill:#221f1f}.d{opacity:.3;fill:#221f1f}.e{opacity:.4;fill:#221f1f}.f{opacity:.5;fill:#221f1f}.g{opacity:.6;fill:#221f1f}.h{opacity:.7;fill:#221f1f}.i{opacity:.8;fill:#221f1f}.j{opacity:.9;fill:#221f1f}.k{opacity:1;fill:#221f1f}.l{fill:#221f1f}.m{fill:#d0d2d3}.n{fill:#bbbdbf}.o{fill:#e6e6e7}.p{fill:#f0f1f1}.q{fill:#929597}.r{fill:#914e93}.s{fill:#29a9e0}.t{fill:#f69322}.u{fill:#d34040}.v{fill:#8bc543}.w{fill:#fff}.x{opacity:.3;fill:#fff}.y{fill:#403f41}</style><path class="a" d="m616.4 511.5c0 4.8-81.2 8.7-181.3 8.7-100.1 0-181.3-3.9-181.3-8.7 0-4.8 81.2-8.7 181.3-8.7 100.1 0 181.3 3.9 181.3 8.7z"/><path class="a" d="m612.7 511.5c0 4.7-79.5 8.6-177.6 8.6-98.1 0-177.6-3.9-177.6-8.6 0-4.7 79.5-8.6 177.6-8.6 98.1 0 177.6 3.9 177.6 8.6z"/><path class="a" d="m608.9 511.5c0 4.6-77.8 8.4-173.8 8.4-96 0-173.8-3.8-173.8-8.4 0-4.6 77.8-8.4 173.8-8.4 96 0 173.8 3.8 173.8 8.4z"/><path class="b" d="m605.2 511.5c0 4.5-76.1 8.2-170.1 8.2-94 0-170.1-3.7-170.1-8.2 0-4.5 76.1-8.2 170.1-8.2 94 0 170.1 3.7 170.1 8.2z"/><path class="b" d="m601.5 511.5c0 4.4-74.5 8-166.4 8-91.9 0-166.4-3.6-166.4-8 0-4.4 74.5-8 166.4-8 91.9 0 166.4 3.6 166.4 8z"/><path class="b" d="m597.8 511.5c0 4.3-72.9 7.8-162.7 7.8-89.8 0-162.7-3.5-162.7-7.8 0-4.3 72.9-7.8 162.7-7.8 89.8 0 162.7 3.5 162.7 7.8z"/><path class="b" d="m594 511.5c0 4.2-71.1 7.7-158.9 7.7-87.8 0-158.9-3.5-158.9-7.7 0-4.2 71.1-7.7 158.9-7.7 87.8 0 158.9 3.5 158.9 7.7z"/><path class="c" d="m590.3 511.5c0 4.1-69.5 7.5-155.2 7.5-85.7 0-155.2-3.4-155.2-7.5 0-4.1 69.5-7.5 155.2-7.5 85.7 0 155.2 3.4 155.2 7.5z"/><path class="c" d="m586.6 511.5c0 4-67.8 7.3-151.5 7.3-83.7 0-151.5-3.3-151.5-7.3 0-4 67.8-7.3 151.5-7.3 83.7 0 151.5 3.3 151.5 7.3z"/><path class="c" d="m582.9 511.5c0 3.9-66.2 7.1-147.8 7.1-81.6 0-147.8-3.2-147.8-7.1 0-3.9 66.2-7.1 147.8-7.1 81.6 0 147.8 3.2 147.8 7.1z"/><path class="c" d="m579.1 511.5c0 3.8-64.4 7-144 7-79.5 0-144-3.2-144-7 0-3.8 64.5-6.9 144-6.9 79.6 0 144 3.1 144 6.9z"/><path class="d" d="m575.4 511.5c0 3.7-62.8 6.8-140.3 6.8-77.5 0-140.3-3.1-140.3-6.8 0-3.7 62.8-6.8 140.3-6.8 77.5 0 140.3 3.1 140.3 6.8z"/><path class="d" d="m571.7 511.5c0 3.6-61.2 6.6-136.6 6.6-75.4 0-136.6-3-136.6-6.6 0-3.6 61.2-6.6 136.6-6.6 75.4 0 136.6 3 136.6 6.6z"/><path class="d" d="m568 511.5c0 3.5-59.5 6.4-132.9 6.4-73.4 0-132.8-2.9-132.8-6.4 0-3.5 59.4-6.4 132.8-6.4 73.4 0 132.9 2.9 132.9 6.4z"/><path class="d" d="m564.2 511.5c0 3.4-57.8 6.2-129.1 6.2-71.3 0-129.1-2.8-129.1-6.2 0-3.4 57.8-6.2 129.1-6.2 71.3 0 129.1 2.8 129.1 6.2z"/><path class="e" d="m560.5 511.5c0 3.3-56.1 6.1-125.4 6.1-69.3 0-125.4-2.8-125.4-6.1 0-3.3 56.1-6 125.4-6 69.3 0 125.4 2.7 125.4 6z"/><path class="e" d="m556.8 511.5c0 3.2-54.5 5.9-121.7 5.9-67.2 0-121.7-2.7-121.7-5.9 0-3.2 54.5-5.9 121.7-5.9 67.2 0 121.7 2.7 121.7 5.9z"/><path class="e" d="m553 511.5c0 3.1-52.8 5.7-117.9 5.7-65.1 0-117.9-2.6-117.9-5.7 0-3.1 52.8-5.7 117.9-5.7 65.1 0 117.9 2.6 117.9 5.7z"/><path class="e" d="m549.3 511.5c0 3-51.1 5.5-114.2 5.5-63.1 0-114.2-2.5-114.2-5.5 0-3 51.1-5.5 114.2-5.5 63.1 0 114.2 2.5 114.2 5.5z"/><path class="f" d="m545.6 511.5c0 2.9-49.5 5.3-110.5 5.3-61 0-110.5-2.4-110.5-5.3 0-2.9 49.5-5.3 110.5-5.3 61 0 110.5 2.4 110.5 5.3z"/><path class="f" d="m541.9 511.5c0 2.9-47.8 5.2-106.8 5.2-59 0-106.8-2.3-106.8-5.2 0-2.8 47.8-5.1 106.8-5.1 59 0 106.8 2.3 106.8 5.1z"/><path class="f" d="m538.1 511.5c0 2.8-46.1 5-103 5-56.9 0-103-2.2-103-5 0-2.7 46.1-5 103-5 56.9 0 103 2.3 103 5z"/><path class="f" d="m534.4 511.5c0 2.7-44.4 4.8-99.3 4.8-54.8 0-99.3-2.1-99.3-4.8 0-2.6 44.5-4.8 99.3-4.8 54.9 0 99.3 2.2 99.3 4.8z"/><path class="g" d="m530.7 511.5c0 2.6-42.8 4.6-95.6 4.6-52.8 0-95.6-2-95.6-4.6 0-2.5 42.8-4.6 95.6-4.6 52.8 0 95.6 2.1 95.6 4.6z"/><path class="g" d="m527 511.5c0 2.5-41.2 4.4-91.9 4.4-50.7 0-91.9-1.9-91.9-4.4 0-2.4 41.2-4.4 91.9-4.4 50.7 0 91.9 2 91.9 4.4z"/><path class="g" d="m523.2 511.5c0 2.4-39.4 4.3-88.1 4.3-48.7 0-88.1-1.9-88.1-4.3 0-2.3 39.4-4.2 88.1-4.2 48.7 0 88.1 1.9 88.1 4.2z"/><path class="g" d="m519.5 511.5c0 2.3-37.8 4.1-84.4 4.1-46.6 0-84.4-1.8-84.4-4.1 0-2.2 37.8-4.1 84.4-4.1 46.6 0 84.4 1.9 84.4 4.1z"/><path class="h" d="m515.8 511.5c0 2.2-36.1 3.9-80.7 3.9-44.6 0-80.7-1.7-80.7-3.9 0-2.1 36.1-3.9 80.7-3.9 44.6 0 80.7 1.8 80.7 3.9z"/><path class="h" d="m512.1 511.5c0 2.1-34.5 3.7-77 3.7-42.5 0-76.9-1.6-76.9-3.7 0-2 34.4-3.7 76.9-3.7 42.5 0 77 1.7 77 3.7z"/><path class="h" d="m508.3 511.5c0 2-32.8 3.5-73.2 3.5-40.4 0-73.2-1.5-73.2-3.5 0-1.9 32.8-3.5 73.2-3.5 40.4 0 73.2 1.6 73.2 3.5z"/><path class="h" d="m504.6 511.5c0 1.9-31.1 3.4-69.5 3.4-38.4 0-69.5-1.5-69.5-3.4 0-1.8 31.1-3.3 69.5-3.3 38.4 0 69.5 1.5 69.5 3.3z"/><path class="i" d="m500.9 511.5c0 1.8-29.5 3.2-65.8 3.2-36.3 0-65.8-1.4-65.8-3.2 0-1.7 29.5-3.2 65.8-3.2 36.3 0 65.8 1.5 65.8 3.2z"/><path class="i" d="m497.1 511.5c0 1.7-27.7 3-62 3-34.3 0-62-1.3-62-3 0-1.6 27.7-3 62-3 34.3 0 62 1.4 62 3z"/><path class="i" d="m493.4 511.5c0 1.6-26.1 2.8-58.3 2.8-32.2 0-58.3-1.2-58.3-2.8 0-1.5 26.1-2.8 58.3-2.8 32.2 0 58.3 1.3 58.3 2.8z"/><path class="i" d="m489.7 511.5c0 1.5-24.4 2.6-54.6 2.6-30.2 0-54.6-1.1-54.6-2.6 0-1.4 24.4-2.6 54.6-2.6 30.2 0 54.6 1.2 54.6 2.6z"/><path class="j" d="m486 511.5c0 1.4-22.8 2.5-50.9 2.5-28.1 0-50.9-1.1-50.9-2.5 0-1.3 22.8-2.4 50.9-2.4 28.1 0 50.9 1.1 50.9 2.4z"/><path class="j" d="m482.2 511.5c0 1.3-21.1 2.3-47.1 2.3-26 0-47.1-1-47.1-2.3 0-1.2 21.1-2.3 47.1-2.3 26 0 47.1 1.1 47.1 2.3z"/><path class="j" d="m478.5 511.5c0 1.2-19.4 2.1-43.4 2.1-24 0-43.4-0.9-43.4-2.1 0-1.1 19.4-2.1 43.4-2.1 24 0 43.4 1 43.4 2.1z"/><path class="j" d="m474.8 511.5c0 1.1-17.8 1.9-39.7 1.9-21.9 0-39.7-0.8-39.7-1.9 0-1 17.8-1.9 39.7-1.9 21.9 0 39.7 0.9 39.7 1.9z"/><path class="k" d="m471.1 511.5c0 1-16.1 1.7-36 1.7-19.9 0-36-0.7-36-1.7 0-0.9 16.1-1.7 36-1.7 19.9 0 36 0.8 36 1.7z"/><path class="k" d="m467.3 511.5c0 0.9-14.4 1.6-32.2 1.6-17.8 0-32.2-0.7-32.2-1.6 0-0.8 14.4-1.5 32.2-1.5 17.8 0 32.2 0.7 32.2 1.5z"/><path class="l" d="m463.6 511.5c0 0.8-12.8 1.4-28.5 1.4-15.7 0-28.5-0.6-28.5-1.4 0-0.7 12.8-1.4 28.5-1.4 15.7 0 28.5 0.7 28.5 1.4z"/><path class="a" d="m1124 585.6c0 6.3-148.6 11.4-331.9 11.4-183.4 0-332-5.1-332-11.4 0-6.3 148.6-11.4 332-11.4 183.3 0 331.9 5.1 331.9 11.4z"/><path class="a" d="m1117.2 585.6c0 6.1-145.5 11.1-325.1 11.1-179.6 0-325.2-5-325.2-11.1 0-6.1 145.6-11.1 325.2-11.1 179.6 0 325.1 5 325.1 11.1z"/><path class="a" d="m1110.4 585.6c0 6-142.5 10.9-318.3 10.9-175.9 0-318.4-4.9-318.4-10.9 0-6 142.5-10.9 318.4-10.9 175.8 0 318.3 4.9 318.3 10.9z"/><path class="b" d="m1103.6 585.6c0 5.9-139.5 10.7-311.5 10.7-172.1 0-311.5-4.8-311.5-10.7 0-5.9 139.4-10.7 311.5-10.7 172 0 311.5 4.8 311.5 10.7z"/><path class="b" d="m1096.7 585.6c0 5.8-136.4 10.4-304.6 10.4-168.3 0-304.7-4.6-304.7-10.4 0-5.8 136.4-10.4 304.7-10.4 168.2 0 304.6 4.6 304.6 10.4z"/><path class="b" d="m1089.9 585.6c0 5.6-133.3 10.2-297.8 10.2-164.5 0-297.9-4.6-297.9-10.2 0-5.6 133.4-10.2 297.9-10.2 164.5 0 297.8 4.6 297.8 10.2z"/><path class="b" d="m1083.1 585.6c0 5.5-130.3 10-291 10-160.8 0-291.1-4.5-291.1-10 0-5.5 130.3-10 291.1-10 160.7 0 291 4.5 291 10z"/><path class="c" d="m1076.3 585.6c0 5.4-127.3 9.7-284.2 9.7-157 0-284.2-4.3-284.2-9.7 0-5.4 127.2-9.7 284.2-9.7 156.9 0 284.2 4.3 284.2 9.7z"/><path class="c" d="m1069.5 585.6c0 5.2-124.2 9.5-277.4 9.5-153.2 0-277.4-4.3-277.4-9.5 0-5.2 124.2-9.5 277.4-9.5 153.2 0 277.4 4.3 277.4 9.5z"/><path class="c" d="m1062.6 585.6c0 5.1-121.1 9.3-270.5 9.3-149.5 0-270.6-4.2-270.6-9.3 0-5.1 121.1-9.3 270.6-9.3 149.4 0 270.5 4.2 270.5 9.3z"/><path class="c" d="m1055.8 585.6c0 5-118.1 9-263.7 9-145.7 0-263.8-4-263.8-9 0-5 118.1-9 263.8-9 145.6 0 263.7 4 263.7 9z"/><path class="d" d="m1049 585.6c0 4.9-115 8.8-256.9 8.8-141.9 0-256.9-3.9-256.9-8.8 0-4.9 115-8.8 256.9-8.8 141.9 0 256.9 3.9 256.9 8.8z"/><path class="d" d="m1042.2 585.6c0 4.7-112 8.6-250.1 8.6-138.2 0-250.1-3.9-250.1-8.6 0-4.7 111.9-8.6 250.1-8.6 138.1 0 250.1 3.9 250.1 8.6z"/><path class="d" d="m1035.3 585.6c0 4.6-108.9 8.3-243.2 8.3-134.4 0-243.3-3.7-243.3-8.3 0-4.6 108.9-8.3 243.3-8.3 134.3 0 243.2 3.7 243.2 8.3z"/><path class="d" d="m1028.5 585.6c0 4.5-105.8 8.1-236.4 8.1-130.6 0-236.5-3.6-236.5-8.1 0-4.5 105.9-8.1 236.5-8.1 130.6 0 236.4 3.6 236.4 8.1z"/><path class="e" d="m1021.7 585.6c0 4.3-102.8 7.9-229.6 7.9-126.9 0-229.6-3.6-229.6-7.9 0-4.3 102.7-7.9 229.6-7.9 126.8 0 229.6 3.6 229.6 7.9z"/><path class="e" d="m1014.9 585.6c0 4.2-99.8 7.6-222.8 7.6-123.1 0-222.8-3.4-222.8-7.6 0-4.2 99.7-7.6 222.8-7.6 123 0 222.8 3.4 222.8 7.6z"/><path class="e" d="m1008 585.6c0 4.1-96.7 7.4-215.9 7.4-119.3 0-216-3.3-216-7.4 0-4.1 96.7-7.4 216-7.4 119.2 0 215.9 3.3 215.9 7.4z"/><path class="e" d="m1001.2 585.6c0 4-93.6 7.2-209.1 7.2-115.6 0-209.2-3.2-209.2-7.2 0-3.9 93.6-7.2 209.2-7.2 115.5 0 209.1 3.3 209.1 7.2z"/><path class="f" d="m994.4 585.6c0 3.8-90.6 6.9-202.3 6.9-111.8 0-202.4-3.1-202.4-6.9 0-3.8 90.6-6.9 202.4-6.9 111.7 0 202.3 3.1 202.3 6.9z"/><path class="f" d="m987.6 585.6c0 3.7-87.6 6.7-195.5 6.7-108 0-195.5-3-195.5-6.7 0-3.7 87.5-6.7 195.5-6.7 107.9 0 195.5 3 195.5 6.7z"/><path class="f" d="m980.7 585.6c0 3.6-84.4 6.5-188.6 6.5-104.2 0-188.7-2.9-188.7-6.5 0-3.6 84.5-6.5 188.7-6.5 104.2 0 188.6 2.9 188.6 6.5z"/><path class="f" d="m973.9 585.6c0 3.4-81.4 6.2-181.8 6.2-100.5 0-181.9-2.8-181.9-6.2 0-3.4 81.4-6.2 181.9-6.2 100.4 0 181.8 2.8 181.8 6.2z"/><path class="g" d="m967.1 585.6c0 3.3-78.4 6-175 6-96.7 0-175.1-2.7-175.1-6 0-3.3 78.4-6 175.1-6 96.6 0 175 2.7 175 6z"/><path class="g" d="m960.3 585.6c0 3.2-75.3 5.8-168.2 5.8-92.9 0-168.2-2.6-168.2-5.8 0-3.2 75.3-5.8 168.2-5.8 92.9 0 168.2 2.6 168.2 5.8z"/><path class="g" d="m953.4 585.6c0 3.1-72.2 5.5-161.3 5.5-89.2 0-161.4-2.4-161.4-5.5 0-3 72.2-5.5 161.4-5.5 89.1 0 161.3 2.5 161.3 5.5z"/><path class="g" d="m946.6 585.6c0 2.9-69.2 5.3-154.5 5.3-85.4 0-154.6-2.4-154.6-5.3 0-2.9 69.2-5.3 154.6-5.3 85.3 0 154.5 2.4 154.5 5.3z"/><path class="h" d="m939.8 585.6c0 2.8-66.1 5.1-147.7 5.1-81.6 0-147.8-2.3-147.8-5.1 0-2.8 66.2-5.1 147.8-5.1 81.6 0 147.7 2.3 147.7 5.1z"/><path class="h" d="m933 585.6c0 2.7-63.1 4.8-140.9 4.8-77.9 0-140.9-2.1-140.9-4.8 0-2.7 63-4.8 140.9-4.8 77.8 0 140.9 2.1 140.9 4.8z"/><path class="h" d="m926.2 585.6c0 2.5-60.1 4.6-134.1 4.6-74.1 0-134.1-2.1-134.1-4.6 0-2.5 60-4.6 134.1-4.6 74 0 134.1 2.1 134.1 4.6z"/><path class="h" d="m919.3 585.6c0 2.4-56.9 4.4-127.2 4.4-70.3 0-127.3-2-127.3-4.4 0-2.4 57-4.4 127.3-4.4 70.3 0 127.2 2 127.2 4.4z"/><path class="i" d="m912.5 585.6c0 2.3-53.9 4.1-120.4 4.1-66.6 0-120.5-1.8-120.5-4.1 0-2.3 53.9-4.1 120.5-4.1 66.5 0 120.4 1.8 120.4 4.1z"/><path class="i" d="m905.7 585.6c0 2.1-50.9 3.9-113.6 3.9-62.8 0-113.6-1.8-113.6-3.9 0-2.1 50.8-3.9 113.6-3.9 62.7 0 113.6 1.8 113.6 3.9z"/><path class="i" d="m898.9 585.6c0 2-47.9 3.7-106.8 3.7-59 0-106.8-1.7-106.8-3.7 0-2 47.8-3.7 106.8-3.7 58.9 0 106.8 1.7 106.8 3.7z"/><path class="i" d="m892 585.6c0 1.9-44.7 3.4-99.9 3.4-55.3 0-100-1.5-100-3.4 0-1.9 44.7-3.4 100-3.4 55.2 0 99.9 1.5 99.9 3.4z"/><path class="j" d="m885.2 585.6c0 1.8-41.7 3.2-93.1 3.2-51.5 0-93.2-1.4-93.2-3.2 0-1.8 41.7-3.2 93.2-3.2 51.4 0 93.1 1.4 93.1 3.2z"/><path class="j" d="m878.4 585.6c0 1.6-38.7 3-86.3 3-47.7 0-86.3-1.4-86.3-3 0-1.6 38.6-3 86.3-3 47.6 0 86.3 1.4 86.3 3z"/><path class="j" d="m871.6 585.6c0 1.5-35.6 2.7-79.5 2.7-43.9 0-79.5-1.2-79.5-2.7 0-1.5 35.6-2.7 79.5-2.7 43.9 0 79.5 1.2 79.5 2.7z"/><path class="j" d="m864.7 585.6c0 1.4-32.5 2.5-72.6 2.5-40.2 0-72.7-1.1-72.7-2.5 0-1.4 32.5-2.5 72.7-2.5 40.1 0 72.6 1.1 72.6 2.5z"/><path class="k" d="m857.9 585.6c0 1.2-29.5 2.3-65.8 2.3-36.4 0-65.9-1.1-65.9-2.3 0-1.2 29.5-2.3 65.9-2.3 36.3 0 65.8 1.1 65.8 2.3z"/><path class="k" d="m851.1 585.6c0 1.1-26.4 2-59 2-32.6 0-59.1-0.9-59.1-2 0-1.1 26.5-2 59.1-2 32.6 0 59 0.9 59 2z"/><path class="l" d="m844.3 585.6c0 1-23.4 1.8-52.2 1.8-28.9 0-52.2-0.8-52.2-1.8 0-1 23.3-1.8 52.2-1.8 28.8 0 52.2 0.8 52.2 1.8z"/><path class="a" d="m344 587.6c0 5.4-36.9 9.8-82.4 9.8-45.5 0-82.4-4.4-82.4-9.8 0-5.4 36.9-9.8 82.4-9.8 45.5 0 82.4 4.4 82.4 9.8z"/><path class="a" d="m342.3 587.6c0 5.3-36.1 9.6-80.7 9.6-44.6 0-80.7-4.3-80.7-9.6 0-5.3 36.1-9.6 80.7-9.6 44.6 0 80.7 4.3 80.7 9.6z"/><path class="a" d="m340.6 587.6c0 5.2-35.4 9.4-79 9.4-43.6 0-79-4.2-79-9.4 0-5.2 35.4-9.4 79-9.4 43.6 0 79 4.2 79 9.4z"/><path class="b" d="m338.9 587.6c0 5.1-34.6 9.2-77.3 9.2-42.7 0-77.3-4.1-77.3-9.2 0-5.1 34.6-9.2 77.3-9.2 42.7 0 77.3 4.1 77.3 9.2z"/><path class="b" d="m337.2 587.6c0 5-33.8 9-75.6 9-41.8 0-75.6-4-75.6-9 0-5 33.8-9 75.6-9 41.8 0 75.6 4 75.6 9z"/><path class="b" d="m335.5 587.6c0 4.8-33.1 8.8-73.9 8.8-40.8 0-73.9-4-73.9-8.8 0-4.9 33.1-8.8 73.9-8.8 40.8 0 73.9 3.9 73.9 8.8z"/><path class="b" d="m333.8 587.6c0 4.7-32.3 8.6-72.2 8.6-39.9 0-72.3-3.9-72.3-8.6 0-4.8 32.4-8.6 72.3-8.6 39.9 0 72.2 3.8 72.2 8.6z"/><path class="c" d="m332.2 587.6c0 4.6-31.6 8.4-70.6 8.4-39 0-70.6-3.8-70.6-8.4 0-4.6 31.6-8.4 70.6-8.4 39 0 70.6 3.8 70.6 8.4z"/><path class="c" d="m330.5 587.6c0 4.5-30.9 8.2-68.9 8.2-38 0-68.9-3.7-68.9-8.2 0-4.5 30.9-8.2 68.9-8.2 38 0 68.9 3.7 68.9 8.2z"/><path class="c" d="m328.8 587.6c0 4.4-30.1 8-67.2 8-37.1 0-67.2-3.6-67.2-8 0-4.4 30.1-8 67.2-8 37.1 0 67.2 3.6 67.2 8z"/><path class="c" d="m327.1 587.6c0 4.3-29.3 7.8-65.5 7.8-36.2 0-65.5-3.5-65.5-7.8 0-4.3 29.3-7.8 65.5-7.8 36.2 0 65.5 3.5 65.5 7.8z"/><path class="d" d="m325.4 587.6c0 4.2-28.6 7.6-63.8 7.6-35.2 0-63.8-3.4-63.8-7.6 0-4.2 28.6-7.6 63.8-7.6 35.2 0 63.8 3.4 63.8 7.6z"/><path class="d" d="m323.7 587.6c0 4.1-27.8 7.4-62.1 7.4-34.3 0-62.1-3.3-62.1-7.4 0-4.1 27.8-7.4 62.1-7.4 34.3 0 62.1 3.3 62.1 7.4z"/><path class="d" d="m322 587.6c0 4-27 7.2-60.4 7.2-33.4 0-60.4-3.2-60.4-7.2 0-4 27-7.2 60.4-7.2 33.4 0 60.4 3.2 60.4 7.2z"/><path class="d" d="m320.3 587.6c0 3.8-26.3 7-58.7 7-32.4 0-58.7-3.2-58.7-7 0-3.9 26.3-7 58.7-7 32.4 0 58.7 3.1 58.7 7z"/><path class="e" d="m318.6 587.6c0 3.7-25.5 6.8-57 6.8-31.5 0-57-3.1-57-6.8 0-3.8 25.5-6.8 57-6.8 31.5 0 57 3 57 6.8z"/><path class="e" d="m316.9 587.6c0 3.6-24.8 6.6-55.3 6.6-30.6 0-55.3-3-55.3-6.6 0-3.6 24.7-6.6 55.3-6.6 30.5 0 55.3 3 55.3 6.6z"/><path class="e" d="m315.2 587.6c0 3.5-24 6.4-53.6 6.4-29.6 0-53.6-2.9-53.6-6.4 0-3.5 24-6.4 53.6-6.4 29.6 0 53.6 2.9 53.6 6.4z"/><path class="e" d="m313.5 587.6c0 3.4-23.2 6.2-51.9 6.2-28.7 0-51.9-2.8-51.9-6.2 0-3.4 23.2-6.2 51.9-6.2 28.7 0 51.9 2.8 51.9 6.2z"/><path class="f" d="m311.8 587.6c0 3.3-22.5 6-50.2 6-27.7 0-50.2-2.7-50.2-6 0-3.3 22.5-6 50.2-6 27.7 0 50.2 2.7 50.2 6z"/><path class="f" d="m310.1 587.6c0 3.2-21.7 5.8-48.5 5.8-26.8 0-48.5-2.6-48.5-5.8 0-3.2 21.7-5.8 48.5-5.8 26.8 0 48.5 2.6 48.5 5.8z"/><path class="f" d="m308.4 587.6c0 3.1-20.9 5.6-46.8 5.6-25.9 0-46.8-2.5-46.8-5.6 0-3.1 20.9-5.6 46.8-5.6 25.9 0 46.8 2.5 46.8 5.6z"/><path class="f" d="m306.7 587.6c0 3-20.2 5.4-45.1 5.4-24.9 0-45.1-2.4-45.1-5.4 0-3 20.2-5.4 45.1-5.4 24.9 0 45.1 2.4 45.1 5.4z"/><path class="g" d="m305 587.6c0 2.8-19.4 5.2-43.4 5.2-24 0-43.5-2.4-43.5-5.2 0-2.9 19.5-5.2 43.5-5.2 24 0 43.4 2.3 43.4 5.2z"/><path class="g" d="m303.4 587.6c0 2.7-18.7 5-41.8 5-23.1 0-41.8-2.3-41.8-5 0-2.8 18.7-5 41.8-5 23.1 0 41.8 2.2 41.8 5z"/><path class="g" d="m301.7 587.6c0 2.6-18 4.8-40.1 4.8-22.1 0-40.1-2.2-40.1-4.8 0-2.6 18-4.8 40.1-4.8 22.1 0 40.1 2.2 40.1 4.8z"/><path class="g" d="m300 587.6c0 2.5-17.2 4.6-38.4 4.6-21.2 0-38.4-2.1-38.4-4.6 0-2.5 17.2-4.6 38.4-4.6 21.2 0 38.4 2.1 38.4 4.6z"/><path class="h" d="m298.3 587.6c0 2.4-16.4 4.4-36.7 4.4-20.3 0-36.7-2-36.7-4.4 0-2.4 16.4-4.4 36.7-4.4 20.3 0 36.7 2 36.7 4.4z"/><path class="h" d="m296.6 587.6c0 2.3-15.7 4.1-35 4.1-19.3 0-35-1.8-35-4.1 0-2.3 15.7-4.2 35-4.2 19.3 0 35 1.9 35 4.2z"/><path class="h" d="m294.9 587.6c0 2.2-14.9 3.9-33.3 3.9-18.4 0-33.3-1.7-33.3-3.9 0-2.2 14.9-4 33.3-4 18.4 0 33.3 1.8 33.3 4z"/><path class="h" d="m293.2 587.6c0 2.1-14.2 3.7-31.6 3.7-17.5 0-31.6-1.6-31.6-3.7 0-2.1 14.1-3.8 31.6-3.8 17.4 0 31.6 1.7 31.6 3.8z"/><path class="i" d="m291.5 587.6c0 2-13.4 3.5-29.9 3.5-16.5 0-29.9-1.5-29.9-3.5 0-2 13.4-3.6 29.9-3.6 16.5 0 29.9 1.6 29.9 3.6z"/><path class="i" d="m289.8 587.6c0 1.8-12.6 3.3-28.2 3.3-15.6 0-28.2-1.5-28.2-3.3 0-1.9 12.6-3.4 28.2-3.4 15.6 0 28.2 1.5 28.2 3.4z"/><path class="i" d="m288.1 587.6c0 1.7-11.9 3.1-26.5 3.1-14.6 0-26.5-1.4-26.5-3.1 0-1.8 11.9-3.2 26.5-3.2 14.6 0 26.5 1.4 26.5 3.2z"/><path class="i" d="m286.4 587.6c0 1.6-11.1 2.9-24.8 2.9-13.7 0-24.8-1.3-24.8-2.9 0-1.6 11.1-3 24.8-3 13.7 0 24.8 1.4 24.8 3z"/><path class="j" d="m284.7 587.6c0 1.5-10.3 2.7-23.1 2.7-12.8 0-23.1-1.2-23.1-2.7 0-1.5 10.3-2.8 23.1-2.8 12.8 0 23.1 1.3 23.1 2.8z"/><path class="j" d="m283 587.6c0 1.4-9.6 2.5-21.4 2.5-11.8 0-21.4-1.1-21.4-2.5 0-1.4 9.6-2.6 21.4-2.6 11.8 0 21.4 1.2 21.4 2.6z"/><path class="j" d="m281.3 587.6c0 1.3-8.8 2.3-19.7 2.3-10.9 0-19.7-1-19.7-2.3 0-1.3 8.8-2.4 19.7-2.4 10.9 0 19.7 1.1 19.7 2.4z"/><path class="j" d="m279.6 587.6c0 1.2-8 2.1-18 2.1-10 0-18-0.9-18-2.1 0-1.2 8-2.2 18-2.2 10 0 18 1 18 2.2z"/><path class="k" d="m277.9 587.6c0 1.1-7.3 1.9-16.3 1.9-9 0-16.3-0.8-16.3-1.9 0-1.1 7.3-2 16.3-2 9 0 16.3 0.9 16.3 2z"/><path class="k" d="m276.2 587.6c0 1-6.5 1.7-14.6 1.7-8.1 0-14.7-0.7-14.7-1.7 0-1 6.6-1.8 14.7-1.8 8.1 0 14.6 0.8 14.6 1.8z"/><path class="l" d="m274.6 587.6c0 0.8-5.8 1.5-13 1.5-7.2 0-13-0.7-13-1.5 0-0.9 5.8-1.6 13-1.6 7.2 0 13 0.7 13 1.6z"/><path class="a" d="m283.4 531.6c0 7.9-62.4 14.2-139.4 14.2-77 0-139.4-6.3-139.4-14.2 0-7.8 62.4-14.2 139.4-14.2 77 0 139.4 6.4 139.4 14.2z"/><path class="a" d="m280.5 531.6c0 7.7-61.1 13.9-136.5 13.9-75.4 0-136.6-6.2-136.6-13.9 0-7.7 61.2-13.9 136.6-13.9 75.4 0 136.5 6.2 136.5 13.9z"/><path class="a" d="m277.7 531.6c0 7.5-59.9 13.6-133.7 13.6-73.9 0-133.7-6.1-133.7-13.6 0-7.5 59.8-13.6 133.7-13.6 73.8 0 133.7 6.1 133.7 13.6z"/><path class="b" d="m274.8 531.6c0 7.4-58.6 13.3-130.8 13.3-72.3 0-130.8-5.9-130.8-13.3 0-7.4 58.5-13.3 130.8-13.3 72.2 0 130.8 5.9 130.8 13.3z"/><path class="b" d="m271.9 531.6c0 7.2-57.2 13.1-127.9 13.1-70.7 0-128-5.9-128-13.1 0-7.2 57.3-13 128-13 70.7 0 127.9 5.8 127.9 13z"/><path class="b" d="m269.1 531.6c0 7-56 12.8-125.1 12.8-69.1 0-125.1-5.8-125.1-12.8 0-7 56-12.8 125.1-12.8 69.1 0 125.1 5.8 125.1 12.8z"/><path class="b" d="m266.2 531.6c0 6.9-54.7 12.5-122.2 12.5-67.5 0-122.2-5.6-122.2-12.5 0-6.9 54.7-12.5 122.2-12.5 67.5 0 122.2 5.6 122.2 12.5z"/><path class="c" d="m263.4 531.6c0 6.7-53.5 12.2-119.4 12.2-65.9 0-119.4-5.5-119.4-12.2 0-6.7 53.5-12.2 119.4-12.2 65.9 0 119.4 5.5 119.4 12.2z"/><path class="c" d="m260.5 531.6c0 6.6-52.2 11.9-116.5 11.9-64.4 0-116.5-5.3-116.5-11.9 0-6.6 52.1-11.9 116.5-11.9 64.3 0 116.5 5.3 116.5 11.9z"/><path class="c" d="m257.6 531.6c0 6.4-50.9 11.6-113.6 11.6-62.8 0-113.6-5.2-113.6-11.6 0-6.4 50.8-11.6 113.6-11.6 62.7 0 113.6 5.2 113.6 11.6z"/><path class="c" d="m254.8 531.6c0 6.2-49.6 11.3-110.8 11.3-61.2 0-110.8-5.1-110.8-11.3 0-6.2 49.6-11.3 110.8-11.3 61.2 0 110.8 5.1 110.8 11.3z"/><path class="d" d="m251.9 531.6c0 6.1-48.3 11-107.9 11-59.6 0-107.9-4.9-107.9-11 0-6.1 48.3-11 107.9-11 59.6 0 107.9 4.9 107.9 11z"/><path class="d" d="m249 531.6c0 5.9-47 10.7-105 10.7-58 0-105-4.8-105-10.7 0-5.9 47-10.7 105-10.7 58 0 105 4.8 105 10.7z"/><path class="d" d="m246.2 531.6c0 5.8-45.8 10.4-102.2 10.4-56.4 0-102.2-4.6-102.2-10.4 0-5.7 45.8-10.4 102.2-10.4 56.4 0 102.2 4.7 102.2 10.4z"/><path class="d" d="m243.3 531.6c0 5.6-44.5 10.1-99.3 10.1-54.9 0-99.3-4.5-99.3-10.1 0-5.6 44.4-10.1 99.3-10.1 54.8 0 99.3 4.5 99.3 10.1z"/><path class="e" d="m240.4 531.6c0 5.4-43.2 9.8-96.4 9.8-53.3 0-96.4-4.4-96.4-9.8 0-5.4 43.1-9.8 96.4-9.8 53.3 0 96.4 4.4 96.4 9.8z"/><path class="e" d="m237.6 531.6c0 5.3-41.9 9.5-93.6 9.5-51.7 0-93.6-4.2-93.6-9.5 0-5.3 41.9-9.5 93.6-9.5 51.7 0 93.6 4.2 93.6 9.5z"/><path class="e" d="m234.7 531.6c0 5.1-40.6 9.3-90.7 9.3-50.1 0-90.7-4.2-90.7-9.3 0-5.1 40.6-9.2 90.7-9.2 50.1 0 90.7 4.1 90.7 9.2z"/><path class="e" d="m231.8 531.6c0 5-39.3 9-87.8 9-48.5 0-87.9-4-87.9-9 0-4.9 39.4-9 87.9-9 48.5 0 87.8 4.1 87.8 9z"/><path class="f" d="m229 531.6c0 4.8-38.1 8.7-85 8.7-46.9 0-85-3.9-85-8.7 0-4.8 38.1-8.7 85-8.7 46.9 0 85 3.9 85 8.7z"/><path class="f" d="m226.1 531.6c0 4.6-36.8 8.4-82.1 8.4-45.4 0-82.1-3.8-82.1-8.4 0-4.6 36.7-8.4 82.1-8.4 45.3 0 82.1 3.8 82.1 8.4z"/><path class="f" d="m223.2 531.6c0 4.5-35.4 8.1-79.2 8.1-43.8 0-79.3-3.6-79.3-8.1 0-4.5 35.5-8.1 79.3-8.1 43.8 0 79.2 3.6 79.2 8.1z"/><path class="f" d="m220.4 531.6c0 4.3-34.2 7.8-76.4 7.8-42.2 0-76.4-3.5-76.4-7.8 0-4.3 34.2-7.8 76.4-7.8 42.2 0 76.4 3.5 76.4 7.8z"/><path class="g" d="m217.5 531.6c0 4.1-32.9 7.5-73.5 7.5-40.6 0-73.5-3.4-73.5-7.5 0-4.1 32.9-7.5 73.5-7.5 40.6 0 73.5 3.4 73.5 7.5z"/><path class="g" d="m214.6 531.6c0 4-31.6 7.2-70.6 7.2-39 0-70.7-3.2-70.7-7.2 0-4 31.7-7.2 70.7-7.2 39 0 70.6 3.2 70.6 7.2z"/><path class="g" d="m211.8 531.6c0 3.8-30.4 6.9-67.8 6.9-37.4 0-67.8-3.1-67.8-6.9 0-3.8 30.4-6.9 67.8-6.9 37.4 0 67.8 3.1 67.8 6.9z"/><path class="g" d="m208.9 531.6c0 3.7-29.1 6.6-64.9 6.6-35.9 0-64.9-2.9-64.9-6.6 0-3.7 29-6.6 64.9-6.6 35.8 0 64.9 2.9 64.9 6.6z"/><path class="h" d="m206 531.6c0 3.5-27.7 6.3-62 6.3-34.3 0-62.1-2.8-62.1-6.3 0-3.5 27.8-6.3 62.1-6.3 34.3 0 62 2.8 62 6.3z"/><path class="h" d="m203.2 531.6c0 3.3-26.5 6-59.2 6-32.7 0-59.2-2.7-59.2-6 0-3.3 26.5-6 59.2-6 32.7 0 59.2 2.7 59.2 6z"/><path class="h" d="m200.3 531.6c0 3.2-25.2 5.7-56.3 5.7-31.1 0-56.3-2.5-56.3-5.7 0-3.2 25.2-5.7 56.3-5.7 31.1 0 56.3 2.5 56.3 5.7z"/><path class="h" d="m197.4 531.6c0 3-23.9 5.5-53.4 5.5-29.5 0-53.5-2.5-53.5-5.5 0-3 24-5.4 53.5-5.4 29.5 0 53.4 2.4 53.4 5.4z"/><path class="i" d="m194.6 531.6c0 2.9-22.7 5.2-50.6 5.2-28 0-50.6-2.3-50.6-5.2 0-2.8 22.6-5.2 50.6-5.2 27.9 0 50.6 2.4 50.6 5.2z"/><path class="i" d="m191.7 531.6c0 2.7-21.4 4.9-47.7 4.9-26.4 0-47.7-2.2-47.7-4.9 0-2.7 21.3-4.9 47.7-4.9 26.3 0 47.7 2.2 47.7 4.9z"/><path class="i" d="m188.8 531.6c0 2.5-20 4.6-44.8 4.6-24.8 0-44.9-2.1-44.9-4.6 0-2.5 20.1-4.6 44.9-4.6 24.8 0 44.8 2.1 44.8 4.6z"/><path class="i" d="m186 531.6c0 2.4-18.8 4.3-42 4.3-23.2 0-42-1.9-42-4.3 0-2.4 18.8-4.3 42-4.3 23.2 0 42 1.9 42 4.3z"/><path class="j" d="m183.1 531.6c0 2.2-17.5 4-39.1 4-21.6 0-39.1-1.8-39.1-4 0-2.2 17.5-4 39.1-4 21.6 0 39.1 1.8 39.1 4z"/><path class="j" d="m180.2 531.6c0 2-16.2 3.7-36.2 3.7-20 0-36.3-1.7-36.3-3.7 0-2 16.3-3.7 36.3-3.7 20 0 36.2 1.7 36.2 3.7z"/><path class="j" d="m177.4 531.6c0 1.9-15 3.4-33.4 3.4-18.5 0-33.4-1.5-33.4-3.4 0-1.9 14.9-3.4 33.4-3.4 18.4 0 33.4 1.5 33.4 3.4z"/><path class="j" d="m174.5 531.6c0 1.7-13.7 3.1-30.5 3.1-16.9 0-30.5-1.4-30.5-3.1 0-1.7 13.6-3.1 30.5-3.1 16.8 0 30.5 1.4 30.5 3.1z"/><path class="k" d="m171.6 531.6c0 1.6-12.3 2.8-27.6 2.8-15.3 0-27.7-1.2-27.7-2.8 0-1.6 12.4-2.8 27.7-2.8 15.3 0 27.6 1.2 27.6 2.8z"/><path class="k" d="m168.8 531.6c0 1.4-11.1 2.5-24.8 2.5-13.7 0-24.8-1.1-24.8-2.5 0-1.4 11.1-2.5 24.8-2.5 13.7 0 24.8 1.1 24.8 2.5z"/><path class="l" d="m165.9 531.6c0 1.2-9.8 2.2-21.9 2.2-12.1 0-21.9-1-21.9-2.2 0-1.2 9.8-2.2 21.9-2.2 12.1 0 21.9 1 21.9 2.2z"/><path class="m" d="m517.8 498.9h-161.1l23.3-108.7h114.5z"/><path class="n" d="m507.7 451.7l-13.2-61.5h-114.5l-13.2 61.5z"/><path class="o" d="m551.6 511.4h-228.7c-12.1 0-14-16-14-16h256.7c0 0-1.9 16-14 16z"/><path class="l" d="m739.6 368.5c0 14.7-11.9 26.6-26.7 26.6h-551.4c-14.7 0-26.7-11.9-26.7-26.6v-320.4c0-14.8 12-26.7 26.7-26.7h551.4c14.8 0 26.7 11.9 26.7 26.7z"/><path class="o" d="m134.8 361.2v52.6c0 14.7 12 26.7 26.7 26.7h551.4c14.8 0 26.7-12 26.7-26.7v-52.6z"/><path class="p" d="m720.1 337.3h-565.8v-290.7h565.8z"/><path class="q" d="m456.6 399.4c0 10.7-8.7 19.4-19.4 19.4-10.6 0-19.3-8.7-19.3-19.4 0-10.6 8.7-19.3 19.3-19.3 10.7 0 19.4 8.7 19.4 19.3z"/><path class="r" d="m352.8 87.5h-123.2v-27.1h123.2z"/><path class="n" d="m644.9 87.5h-269.3v-27.1h269.3z"/><path class="s" d="m644.9 174.5h-415.3v-74.7h415.3z"/><path class="t" d="m352.8 265h-123.2v-75.5h123.2z"/><path class="u" d="m498.9 265h-123.3v-75.5h123.3z"/><path class="v" d="m644.9 265h-123.3v-75.5h123.3z"/><path class="q" d="m352.8 287.2h-123.2v-10.7h123.2z"/><path class="n" d="m352.8 306.2h-123.2v-10.7h123.2z"/><path class="n" d="m352.8 325.2h-123.2v-10.8h123.2z"/><path class="q" d="m498.9 287.2h-123.3v-10.7h123.3z"/><path class="n" d="m498.9 306.2h-123.3v-10.7h123.3z"/><path class="n" d="m498.9 325.2h-123.3v-10.8h123.3z"/><path class="q" d="m644.9 287.2h-123.3v-10.7h123.3z"/><path class="n" d="m644.9 306.2h-123.3v-10.7h123.3z"/><path class="n" d="m644.9 325.2h-123.3v-10.8h123.3z"/><g style="opacity:.3"><path class="w" d="m712.9 21.8h-382.7l253 419.1h129.7c14.8 0 26.7-12 26.7-26.7v-45.3-7.3-313.1c0-14.8-11.9-26.7-26.7-26.7z"/></g><path class="l" d="m1013 569.8v-275.6c0-13.2-10.7-23.8-23.8-23.8h-396.8c-13.2 0-23.8 10.6-23.8 23.8v275.6z"/><path class="n" d="m1048.4 586h-515.2c-10.7 0-12.4-14.2-12.4-14.2h539.9c0 0-1.6 14.2-12.3 14.2z"/><path class="o" d="m1060.7 574.2h-539.9v-7.9h539.9z"/><path class="n" d="m842.9 570.8h-104.2v-4.5h104.2z"/><path class="p" d="m995.6 551.7h-409.6v-258.8h409.6z"/><path class="r" d="m714.3 329.2h-109.7v-24.1h109.7z"/><path class="n" d="m974.3 329.2h-239.7v-24.1h239.7z"/><path class="s" d="m974.3 406.7h-369.7v-66.5h369.7z"/><path class="t" d="m714.3 487.3h-109.7v-67.2h109.7z"/><path class="u" d="m844.3 487.3h-109.7v-67.2h109.7z"/><path class="v" d="m974.3 487.3h-109.7v-67.2h109.7z"/><path class="q" d="m714.3 507.1h-109.7v-9.5h109.7z"/><path class="n" d="m714.3 524h-109.7v-9.5h109.7z"/><path class="n" d="m714.3 540.9h-109.7v-9.5h109.7z"/><path class="q" d="m844.3 507.1h-109.7v-9.5h109.7z"/><path class="n" d="m844.3 524h-109.7v-9.5h109.7z"/><path class="n" d="m844.3 540.9h-109.7v-9.5h109.7z"/><path class="q" d="m974.3 507.1h-109.7v-9.5h109.7z"/><path class="n" d="m974.3 524h-109.7v-9.5h109.7z"/><path class="n" d="m974.3 540.9h-109.7v-9.5h109.7z"/><path class="x" d="m1013.1 565.3v-271.1c0-13.2-10.6-23.8-23.8-23.8h-273.2l178 294.9z"/><path class="l" d="m56.6 534.8c-7.4 0-13.3-6-13.3-13.3v-267.9c0-7.3 5.9-13.3 13.3-13.3h179.1c7.4 0 13.3 6 13.3 13.3v267.9c0 7.3-5.9 13.3-13.3 13.3z"/><path class="p" d="m57.3 506.1v-237.1h177.7v237.1z"/><path class="y" d="m160 521.2c0 2.7-2.2 4.9-4.9 4.9h-15.3c-2.7 0-4.8-2.2-4.8-4.9 0-2.7 2.1-4.9 4.8-4.9h15.3c2.7 0 4.9 2.2 4.9 4.9z"/><path class="r" d="m121.7 305.5h-55v-23.4h55z"/><path class="n" d="m225.6 305.5h-94.2v-23.4h94.2z"/><path class="s" d="m225.6 383.8h-158.9v-65.8h158.9z"/><path class="t" d="m139 440.6h-72.3v-44.2h72.3z"/><path class="u" d="m224.6 440.6h-72.3v-44.2h72.3z"/><path class="q" d="m139 457.8h-72.3v-6.3h72.3z"/><path class="n" d="m139 470.6h-72.3v-6.3h72.3z"/><path class="n" d="m139 483.4h-72.3v-6.3h72.3z"/><path class="n" d="m139 496.3h-72.3v-6.3h72.3z"/><path class="q" d="m224.6 457.8h-72.3v-6.3h72.3z"/><path class="n" d="m224.6 470.6h-72.3v-6.3h72.3z"/><path class="n" d="m224.6 483.4h-72.3v-6.3h72.3z"/><path class="n" d="m224.6 496.3h-72.3v-6.3h72.3z"/><path class="x" d="m229.2 534.8h6.5c7.4 0 13.3-6 13.3-13.3v-267.9c0-7.3-5.9-13.3-13.3-13.3h-179.1c-1.7 0-3.2 0.3-4.7 0.9z"/><path class="l" d="m322 577.2c0 6.5-5.3 11.8-11.8 11.8h-95.9c-6.5 0-11.7-5.3-11.7-11.8v-183.3c0-6.5 5.2-11.8 11.7-11.8h95.9c6.5 0 11.8 5.3 11.8 11.8z"/><path class="p" d="m314.6 560h-104.7v-151.9h104.7z"/><path class="y" d="m266.7 396.5c0 2.4-2 4.4-4.4 4.4-2.4 0-4.4-2-4.4-4.4 0-2.5 2-4.4 4.4-4.4 2.4 0 4.4 1.9 4.4 4.4z"/><path class="y" d="m274.7 574.6c0 2.7-2.1 4.9-4.8 4.9h-15.2c-2.7 0-4.9-2.2-4.9-4.9 0-2.7 2.2-4.8 4.9-4.8h15.2c2.7 0 4.8 2.1 4.8 4.8z"/><path class="r" d="m309.7 428.2h-94.5v-15.3h94.5z"/><path class="n" d="m309.7 450.2h-94.5v-16.9h94.5z"/><path class="s" d="m309.7 494.6h-94.5v-38.2h94.5z"/><path class="t" d="m309.7 553.3h-94.5v-52.7h94.5z"/><path class="x" d="m320.3 582.6c0.8-1.6 1.3-3.4 1.3-5.4v-183.3c0-6.5-5.3-11.8-11.8-11.8h-95.9c-4.7 0-8.7 2.8-10.6 6.7z"/></svg>