<svg xmlns="http://www.w3.org/2000/svg" version="1.2" viewBox="0 0 175 132" width="175" height="132"><defs><linearGradient id="P" gradientUnits="userSpaceOnUse"/><linearGradient id="g1" x1="2" y1="3.8" x2="175.4" y2="3.8" href="#P"><stop stop-color="#2b2b3f"/><stop offset="1" stop-color="#2b2b3f"/></linearGradient><linearGradient id="g2" x1="2" y1="114.5" x2="175.4" y2="114.5" href="#P"><stop stop-color="#2b2b3f"/><stop offset="1" stop-color="#2b2b3f"/></linearGradient><linearGradient id="g3" x1="2" y1="114.5" x2="175.4" y2="114.5" href="#P"><stop stop-color="#2b2b3f"/><stop offset="1" stop-color="#2b2b3f"/></linearGradient><linearGradient id="g4" x1="2" y1="114.5" x2="175.3" y2="114.5" href="#P"><stop stop-color="#2b2b3f"/><stop offset="1" stop-color="#2b2b3f"/></linearGradient><linearGradient id="g5" x1="28.7" y1="38.5" x2="146" y2="38.5" href="#P"><stop stop-color="#2b2b3f"/><stop offset="1" stop-color="#2b2b3f"/></linearGradient><linearGradient id="g6" x1="28.7" y1="38.5" x2="146" y2="38.5" href="#P"><stop stop-color="#2b2b3f"/><stop offset="1" stop-color="#2b2b3f"/></linearGradient><linearGradient id="g7" x1="28.7" y1="37.6" x2="146" y2="37.6" href="#P"><stop stop-color="#2b2b3f"/><stop offset="1" stop-color="#2b2b3f"/></linearGradient></defs><style>.a{fill:url(#g1)}.b{fill:url(#g2)}.c{fill:url(#g3)}.d{fill:url(#g4)}.e{fill:url(#g5)}.f{fill:url(#g6)}.g{fill:url(#g7)}</style><path class="a" d="m171.5 126.3h-37v-12h25v-98.5h-143v98.5h25.9v12h-37.9v-122.5h167z"/><path class="b" d="m71.2 127.2h-12.7v-12.7h12.7z"/><path class="c" d="m94.4 127.2h-12.8v-12.7h12.8z"/><path class="d" d="m117.5 127.2h-12.7v-12.7h12.7z"/><path class="e" d="m53.1 90l-25.8-25.8 25.8-25.7 8.5 8.5-17.3 17.3 17.3 17.2z"/><path class="f" d="m119.2 90l-8.5-8.5 17.3-17.2-17.3-17.3 8.5-8.5 25.8 25.8z"/><path class="g" d="m86.6 90.9l-11.7-2.8 12-50.5 11.7 2.8z"/></svg>