<svg version="1.2" xmlns="http://www.w3.org/2000/svg" viewBox="0 0 1500 1000" width="1500" height="1000"><style>.a{fill:#323247}.b{fill:#b83d5d}.c{fill:#e3b5aa}.d{fill:#d78f97}.e{fill:none;stroke:#c87e84}.f{fill:#c87e84}.g{fill:none;stroke:#b83d5d;stroke-width:2}.h{fill:#36364f}.i{fill:none;stroke:#fff;stroke-width:8}.j{fill:#9a304f}.k{fill:#c33e5d}.l{fill:#eba154}.m{opacity:.5;fill:#d9751f}.n{fill:none;stroke:#dc831e;stroke-width:6}.o{fill:#80abbd}.p{fill:#fff}.q{fill:#4b7195}.r{opacity:.4;fill:#5a93a0}.s{opacity:.4;fill:#a3d5e6}.t{fill:#47547c}.u{opacity:.5;fill:#2b2b3f}.v{fill:none;stroke:#fd783d;stroke-width:2;stroke-dasharray:8}.w{fill:#49496b}.x{fill:#64648e}.y{fill:none;stroke:#fd783d;stroke-width:2}.z{fill:none;stroke:#fd783d;stroke-width:2;stroke-dasharray:8,8}.A{fill:#54b3cd}.B{fill:none;stroke:#fd783d;stroke-width:2;stroke-dasharray:6,6}.C{fill:#fd783d}.D{fill:none;stroke:#fd783d;stroke-width:2;stroke-dasharray:10,10}.E{fill:#0c8068}.F{fill:none;stroke:#0a6d53;stroke-width:2}.G{opacity:.5;fill:#0a6d53}.H{fill:#159a7a}.I{fill:none;stroke:#0c8068;stroke-width:2}.J{opacity:.5;fill:#0c8068}.K{fill:#dc831e}</style><path class="a" d="m653.2 600.3l-26 9.4v9l26 9.4v-8.6l-15.4-5.3 15.4-5.3zm0.8 36.8h10.1l16.8-47.9h-10.2zm27.3-36.8v8.6l15.4 5.3-15.4 5.3v8.7l25.9-9.5v-9z"/><path class="b" d="m932.1 443.6c-3 65.3-67.2 115.4-115.3 118.4-63.5 4-109-53.3-115.3-118.4-5.5-56.4 14.5-55.6 29.5-79.1 18-28.5 51.7-44.2 85.8-44.2 63.7 0 119.3 35.4 115.3 123.3z"/><path class="c" d="m861.5 555.9v111.9h-89.4v-111.9z"/><path class="c" d="m917.2 490.6c15.9-24.2 36.2-25.2 44.7 3.4 8.5 28.6-19.5 52.1-42.2 43.5-22.8-8.7-2.5-46.9-2.5-46.9z"/><path class="d" d="m936 491.3c10.7-2 16.2 29.8-7.2 30.9l4.8-11.1-4.6-9.3z"/><path class="e" d="m925.2 526.5c13.7-14.5 3.8-24.7 3.8-24.7 0 0 13-26.6 18.2-6.2"/><path class="c" d="m715.7 490.6c-16-24.2-36.3-25.2-44.7 3.4-8.5 28.6 19.5 52.1 42.2 43.5 22.8-8.7 2.5-46.9 2.5-46.9z"/><path class="d" d="m696.9 491.3c-10.7-2-16.2 29.8 7.2 30.9l-4.8-11.1 4.5-9.3z"/><path class="e" d="m707.6 526.5c-13.6-14.5-3.8-24.7-3.8-24.7 0 0-13-26.6-18.2-6.2"/><path class="f" d="m861.5 558.4v41.6c-32.1 43.5-89.4 29.4-89.4 29.4l1-71z"/><path class="c" d="m816.8 606.1c-53.3 0-96.6-43.3-96.6-96.6v-70.6c0-36.1 29.2-65.3 65.3-65.3h62.7c36 0 65.2 29.2 65.2 65.3v70.6c0 53.3-43.2 96.6-96.6 96.6z"/><path class="g" d="m831.7 522.1c0 8.2-6.7 14.8-14.9 14.8-8.2 0-14.9-6.6-14.9-14.8"/><path class="b" d="m730.4 377.9c0 0-16.9-28 4.3-52.7 0 0 15.2 28.2-4.3 52.7z"/><path class="b" d="m739 371.3c0 0-23.5 22.7-52.4 7.6 0 0 24.1-21.1 52.4-7.6z"/><path class="h" d="m778.4 487.4c0 8-3.4 14.5-7.5 14.5-4.2 0-7.6-6.5-7.6-14.5 0-8 3.4-14.4 7.6-14.4 4.1 0 7.5 6.4 7.5 14.4z"/><path class="i" d="m805.8 486.3c0 21.5-17.4 38.9-38.9 38.9-21.4 0-38.8-17.4-38.8-38.9 0-21.4 17.4-38.8 38.8-38.8 21.5 0 38.9 17.4 38.9 38.8z"/><path class="h" d="m870.4 487.4c0 8-3.4 14.5-7.6 14.5-4.2 0-7.6-6.5-7.6-14.5 0-8 3.4-14.4 7.6-14.4 4.2 0 7.6 6.4 7.6 14.4z"/><path class="i" d="m905.5 486.3c0 21.5-17.3 38.9-38.8 38.9-21.5 0-38.8-17.4-38.8-38.9 0-21.4 17.3-38.8 38.8-38.8 21.5 0 38.8 17.4 38.8 38.8z"/><path class="b" d="m732.2 401.2c0 0 61.4-32.4 102.1-8.9 40.8 23.4 45.4 71.9 85.7 59.3 0 0 30.5-13.4-3.1-60.3-33.6-46.9-56.7-56.1-100.4-45.9-43.8 10.2-72.3 18.1-84.3 55.8z"/><path class="j" d="m729.8 400.7c0 0 20.3-26.8 48.6-33.9 28.4-7.1 59.8 27.7 59.8 27.7 0 0-72.7-10.3-108.4 6.2z"/><path class="b" d="m720.4 434.5c0 0 6.8 49.9 0 80.3 0 0-10-77.3 0-80.3z"/><path class="b" d="m912.7 434.5c0 0-6.8 49.9 0 80.3 0 0 10-77.3 0-80.3z"/><path class="b" d="m788.2 430.6c-10.6-5-29.3-10.6-46.7 1.8-2.9 2.1-1.8 6.7 1.7 7.3 5.6 0.9 13.6 1.9 22.6 1.9 7.1-0.1 15.4-1.8 21.6-3.4 3.7-0.9 4.2-6 0.8-7.6z"/><path class="b" d="m890 430.6c-10.6-5-29.3-10.6-46.7 1.8-2.9 2.1-1.8 6.7 1.7 7.3 5.6 0.9 13.6 1.9 22.6 1.9 7.1-0.1 15.4-1.8 21.6-3.4 3.7-0.9 4.2-6 0.8-7.6z"/><path class="k" d="m849.5 557c-1 1.8-2.2 3.6-3.8 5.5-5.2 6.2-14 12.2-29 12.5h-1.1v-0.1c-14.1-0.3-22.8-5.6-28-11.4-2.1-2.2-3.6-4.5-4.7-6.6-2.5-4.8-3.2-8.6-3.2-8.6l73 0.1c0 0-0.6 3.8-3.2 8.6z"/><path class="h" d="m849.5 557c-1 1.8-2.2 3.6-3.8 5.5-16.8-7.4-36.9-8.9-58.1 1-2.1-2.2-3.6-4.5-4.7-6.6-2.5-4.8-3.2-8.6-3.2-8.6l73 0.1c0 0-0.6 3.8-3.2 8.6z"/><path class="l" d="m1126.9 945.7l-654 0.7c0 0 12.2-25.5 29.8-59.4q2-3.7 4-7.6c24-45.8 56.2-103.5 81.4-134.9 29-36.1 97.5-61.8 144.1-75.8 27.1-8.2 46.7-12.4 46.7-12.4h75.2c0 0 17.6 3.7 42.5 11.1 46.5 13.8 116 42 148.3 77.1 7.1 7.7 13.7 17.1 20 27.4 39.6 66 62 173.8 62 173.8z"/><path class="m" d="m1126.9 945.7l-654 0.7c0 0 12.2-25.5 29.8-59.4 326.3 96 498.3-61.2 537.5-103.8 6.4-6.9 15.2-11 24.5-11.3h0.2c39.6 66 62 173.8 62 173.8z"/><path class="i" d="m806.6 492.9h20.5"/><path class="c" d="m896.6 667.4c-80.9 89.1-164.4 1.3-164.4 1.3 27.1-8.2 46.7-12.5 46.7-12.5h75.2c0 0 17.6 3.8 42.5 11.2z"/><path class="n" d="m638.1 844.9v101.6"/><path class="n" d="m638.1 909.7l-27.3-34.8"/><path class="n" d="m993.7 844.9v101.6"/><path class="n" d="m993.7 909.7l24.2-30.9"/><path class="n" d="m728.3 707.3c0 0 100.4 68.6 168.3-3.3"/><path class="b" d="m729.9 359.2c22.5-94.7 248.3-84.3 206.3 100.1-12.6 55.2-104.6-125.6-184.1-81.2-5.9 3.3-13.3 2.4-18.3-2.2-4.5-4.3-5.4-10.6-3.9-16.7z"/><path class="o" d="m853.9 945.8q-0.1 0-0.3 0-0.8 0.1-1.6 0.1h-438c-5.8 0-11-2.7-14.4-7-2.5-3.1-4-7.1-4-11.4l-0.1-0.2-68.2-192.7c-5.2-14.8 5.7-30.2 21.4-30.2h284.3c9.6 0 18.2 6 21.4 15.1l73.5 207.6q0.1 0.4 0.1 0.4h124.4c11.4 0 12.7 17 1.5 18.3z"/><path class="p" d="m527.2 820.7c7.2 20.9-0.9 42.7-18.1 48.6-17.3 5.9-37-6.2-44.2-27.1-7.2-21 0.9-42.7 18.1-48.6 17.3-6 37 6.2 44.2 27.1z"/><path class="q" d="m852.4 927.5h-124.4q0-0.1-0.1-0.4l-73.5-207.7c-3.2-9-11.8-15-21.4-15h-9.5c0 0 21.3 1.4 26.6 20.4 5.3 19 77.9 220.7 77.9 220.7l5.3 0.4h118.7q0.8 0 1.6-0.1c11.5-1 10.3-18.3-1.2-18.3z"/><path class="r" d="m853.9 945.8q-0.1 0-0.3 0-0.8 0.1-1.6 0.1h-438c-5.8 0-11-2.7-14.4-7 258.9 22.3 233.4-234.5 233.4-234.5 9.6 0 18.2 6 21.4 15.1l73.5 207.6q0.1 0.4 0.1 0.4h122.4q2 9 3.5 18.3z"/><path class="q" d="m333.1 818.7v6.4c-11.7 1.3-14.5 11.2-14.5 23.2v4c0 11.9 2.8 21.8 14.5 23.1v6.4h-222.8c-9.2 0-16.6-7.4-16.6-16.5v-30.1c0-9.1 7.4-16.5 16.6-16.5z"/><path class="p" d="m329.6 868.8c1.3 3.2-1.1 6.6-4.5 6.6l-212.9 0.2v-50.6l212.9 0.1c1.2 0 2.3 0.5 3.2 1.2 1.4 1.3 2.1 3.4 1.3 5.4-1.8 4.2-1.7 10.1-1.7 16.6v4c0 6.5-0.1 12.3 1.7 16.5z"/><path class="s" d="m328.3 826.3c-4.1 0.2-192.3 10-205.2 28.2-3.5 5-7.4 7.8-10.9 8.3v-37.8l212.9 0.1c1.2 0 2.3 0.5 3.2 1.2z"/><path class="q" d="m123.1 881.9h-18.7c-5.9 0-10.7-4.8-10.7-10.7v-41.8c0-5.9 4.8-10.7 10.7-10.7h18.7z"/><path class="s" d="m329.6 868.8c1.3 3.2-1.1 6.6-4.5 6.6l-42.5 0.1c33.7-3.9 31.6-31.6 31.6-31.6 0.4-1.3-26.7-17.6-26.2-18.8h37.1c1.2 0 2.3 0.5 3.2 1.2 1.4 1.3 2.1 3.4 1.3 5.4-1.8 4.2-1.7 10.1-1.7 16.6v4c0 6.5-0.1 12.3 1.7 16.5z"/><path class="s" d="m327.9 851.1h-204.4v-4.5h204.4z"/><path class="s" d="m327.9 840.9h-204.4v-4.6h204.4z"/><path class="s" d="m327.9 864.2h-204.4v-4.5h204.4z"/><path class="k" d="m262.1 866.1l-10.9-10.8-10.9 10.8v-29.8h21.8z"/><path class="k" d="m356.9 881.6v6.5c-11.7 1.3-14.5 11.2-14.5 23.2v3.9c0 12 2.8 21.9 14.5 23.2v6.4h-222.8c-9.1 0-16.5-7.4-16.5-16.5v-30.1c0-9.1 7.4-16.6 16.5-16.6z"/><path class="p" d="m353.4 931.8c1.4 3.2-1.1 6.6-4.5 6.6l-212.9 0.2v-50.7l212.9 0.2c1.2 0 2.4 0.4 3.2 1.2 1.5 1.2 2.2 3.4 1.3 5.4-1.7 4.2-1.7 10.1-1.7 16.6v3.9c0 6.5 0 12.4 1.7 16.6z"/><path class="s" d="m352.1 889.3c-4.1 0.2-192.2 9.9-205.1 28.2-3.5 5-7.5 7.7-11 8.3v-37.9l212.9 0.2c1.2 0 2.4 0.4 3.2 1.2z"/><path class="k" d="m147 944.8h-18.7c-5.9 0-10.7-4.8-10.7-10.7v-41.8c0-5.9 4.8-10.7 10.7-10.7h18.7z"/><path class="s" d="m353.4 931.8c1.4 3.2-1.1 6.6-4.5 6.6h-42.5c33.8-3.8 31.7-31.5 31.7-31.5 0.3-1.4-26.7-17.6-26.3-18.9l37.1 0.1c1.2 0 2.4 0.4 3.2 1.2 1.5 1.2 2.2 3.4 1.3 5.4-1.7 4.2-1.7 10.1-1.7 16.6v3.9c0 6.5 0 12.4 1.7 16.6z"/><path class="s" d="m351.7 914.1h-204.4v-4.6h204.4z"/><path class="s" d="m351.7 903.8h-204.4v-4.5h204.4z"/><path class="s" d="m351.7 927.2h-204.4v-4.6h204.4z"/><path class="k" d="m329.4 933.1l-11.5-11.5-11.5 11.5v-31.5h23z"/><path class="t" d="m1435.7 972.3v4.6c0 14.1-11.5 25.6-25.6 25.6h-1308.1c-11.9 0-21.9-8.2-24.7-19.1q0-0.1 0-0.1-0.8-3.1-0.8-6.4v-4.6c0-14.1 11.4-25.6 25.5-25.6h1308.1c14.1 0 25.6 11.5 25.6 25.6z"/><path class="u" d="m1435.7 972.3v4.6c0 14.1-11.5 25.6-25.6 25.6h-1308.1c-11.9 0-21.9-8.2-24.7-19.1q0-0.1 0-0.1c-0.6-4.1-0.8-6.4-0.8-6.4 733.5 25.6 1333.6-30.2 1333.6-30.2 14.1 0 25.6 11.5 25.6 25.6z"/><path fill-rule="evenodd" class="l" d="m1410.3 275.4c2.5 1.7 5.1 3.7 7.5 6l-0.5 2.1c-0.5 2.3-1.4 4.5-2.3 6.7-0.4 1.1-1 2.2-1.5 3.3q-0.7 1.6-1.7 3.1l-1.1 1.8c-3.2-0.1-6.5-0.5-9.6-1q-4-0.9-7.8-2.4-0.3 0.4-0.6 0.7c0.9 2.5 1.7 5.1 2.2 7.8 0.6 3.1 1 6.4 1.1 9.6l-1.8 1.1c-1 0.7-2.1 1.2-3.2 1.7-1 0.5-2.1 1.1-3.2 1.5-2.2 0.9-4.4 1.7-6.7 2.2l-2.1 0.6c-2.3-2.4-4.3-5-6-7.5-1.6-2.4-2.8-4.8-4-7.2q-0.2 0-0.4 0-0.2 0-0.5 0-1.6 3.6-3.9 7.2c-1.7 2.5-3.8 5.1-6.1 7.5l-2-0.6c-2.3-0.5-4.5-1.3-6.8-2.2-1-0.4-2.1-1-3.2-1.5-1.1-0.5-2.1-1-3.1-1.7l-1.8-1.1c0-3.2 0.5-6.5 1-9.6 0.6-2.7 1.4-5.3 2.3-7.8q-0.3-0.3-0.6-0.7c-2.5 1-5.1 1.8-7.9 2.4-3 0.5-6.3 0.9-9.6 1l-1.1-1.8q-0.9-1.5-1.7-3.1-0.7-1.6-1.5-3.3c-0.8-2.2-1.7-4.4-2.2-6.7l-0.5-2.1c2.4-2.3 5-4.3 7.5-6q3.6-2.4 7.2-3.9 0-0.3 0-0.5 0-0.3 0-0.5c-2.4-1.1-4.8-2.3-7.2-3.9-2.5-1.7-5.1-3.8-7.5-6.1l0.5-2c0.5-2.3 1.4-4.5 2.2-6.8 0.5-1.1 1-2.1 1.5-3.2 0.5-1.1 1.1-2.1 1.7-3.1l1.1-1.8c3.3 0 6.6 0.4 9.6 1 2.8 0.6 5.4 1.4 7.9 2.3q0.3-0.3 0.6-0.6c-0.9-2.5-1.7-5.1-2.3-7.9-0.5-3-1-6.3-1-9.6l1.8-1c1-0.7 2-1.3 3.1-1.8 1.1-0.5 2.2-1 3.2-1.5 2.3-0.8 4.5-1.7 6.8-2.2l2-0.5c2.3 2.4 4.4 5 6.1 7.5q2.3 3.6 3.9 7.2c0.2 0 0.3 0 0.5 0 0.1 0 0.3 0 0.4 0 1.2-2.4 2.4-4.8 4-7.2 1.7-2.5 3.7-5.1 6-7.5l2.1 0.5c2.3 0.5 4.5 1.4 6.7 2.2 1.1 0.5 2.2 1 3.2 1.5q1.7 0.8 3.2 1.8l1.8 1c-0.1 3.3-0.5 6.6-1.1 9.6-0.5 2.8-1.3 5.4-2.2 7.9l0.6 0.6c2.5-0.9 5.1-1.7 7.8-2.3 3.1-0.6 6.4-1 9.6-1l1.1 1.8c0.7 1 1.2 2 1.7 3.1 0.5 1.1 1.1 2.1 1.5 3.2 0.9 2.3 1.8 4.5 2.3 6.8l0.5 2c-2.4 2.3-5 4.4-7.5 6.1-2.4 1.6-4.8 2.8-7.2 3.9q0 0.2 0 0.5 0 0.2 0 0.5 3.6 1.5 7.2 3.9zm-25.2-4.4c0-9.1-7.4-16.5-16.5-16.5-9.1 0-16.5 7.4-16.5 16.5 0 9.1 7.4 16.5 16.5 16.5 9.1 0 16.5-7.4 16.5-16.5z"/><path class="v" d="m1321.3 296.5h-111.4v109.6h30.9"/><path class="p" d="m1304.7 475.8h-61.2v-11h61.2z"/><path class="p" d="m1337.6 496h-94.1v-10.9h94.1z"/><path class="p" d="m1275.5 516.3h-32v-11h32z"/><path class="l" d="m1320.7 516.3h-32.1v-11h32.1z"/><path class="l" d="m1378.2 516.3h-46v-11h46z"/><path class="l" d="m1378.2 496h-28v-10.9h28z"/><path class="l" d="m1378.2 475.8h-61.2v-11h61.2z"/><path class="p" d="m1398.6 516h2v-122h-2z"/><path class="p" d="m1307.4 409.7h-63v-11.2h63z"/><path class="p" d="m1341.2 430.5h-96.8v-11.2h96.8z"/><path class="p" d="m1277.4 451.4h-33v-11.3h33z"/><path class="l" d="m1323.8 451.4h-32.9v-11.3h32.9z"/><path class="l" d="m1383 451.4h-47.4v-11.3h47.4z"/><path class="l" d="m1383 430.5h-28.8v-11.2h28.8z"/><path class="l" d="m1383 409.7h-63v-11.2h63z"/><path class="w" d="m1165.4 544.8h-181.2v-356.1h181.2z"/><path class="p" d="m1140.9 278.9h-136v-14.4h136z"/><path class="p" d="m1094.9 310.9h-90v-14.4h90z"/><path class="l" d="m1140.9 310.9h-32.6v-14.4h32.6z"/><path class="l" d="m1140.9 342.9h-84.3v-14.5h84.3z"/><path class="p" d="m1044.3 342.9h-39.4v-14.5h39.4z"/><path class="p" d="m1076.8 374.9h-71.9v-14.5h71.9z"/><path class="l" d="m1140.9 374.9h-53.1v-14.5h53.1z"/><path class="l" d="m1140.9 406.9h-96.6v-14.5h96.6z"/><path class="p" d="m1034.1 406.9h-29.2v-14.5h29.2z"/><path class="p" d="m1063.2 438.9h-58.3v-14.5h58.3z"/><path class="l" d="m1140.9 438.9h-68v-14.5h68z"/><path class="l" d="m1136.9 509.7v4.1l-14.9 5.6v-3.9l10.4-3.8-10.4-3.8v-3.9z"/><path class="l" d="m1094.6 504v3.9l-10.5 3.8 10.5 3.8v3.9l-14.9-5.6v-4.1z"/><path class="l" d="m1112.2 493.1h4.6l-11 31.5h-4.7z"/><path class="l" d="m1068.5 231.8v5.4l-19.5 7.4v-5.1l13.7-5-13.7-5v-5.1z"/><path class="l" d="m1032.6 224.4v5.1l-13.6 5 13.6 5v5.1l-19.5-7.4v-5.4z"/><path class="p" d="m1004.2 134.2v9.1h-8v-9.1h-8.7v25.8h8.7v-9.5h8v9.5h8.7v-25.8zm18.5 25.8h8.7v-19.1h7.6v-6.7h-23.8v6.7h7.5zm49.5 0l-0.1-25.8h-7.1l-8.2 13.8-8.4-13.8h-7.2v25.8h8v-11.3l5.6 9h3.8l5.6-9.4 0.1 11.7zm4.2 0h20.3v-6.7h-11.6v-19.1h-8.7z"/><path fill-rule="evenodd" class="x" d="m155.5 567.4q1.3 2.9 2.1 5.8c6.3 21.5-4.1 44.9-25.1 54.3-22.9 10.2-49.9-0.1-60.1-23-6.3-14.1-4.8-29.7 2.6-42.1 4.6-7.7 11.6-14.1 20.4-18q0.5-0.2 0.9-0.4c4.9-2.1 10-3.2 15.1-3.5 7.4-0.4 14.7 1 21.4 4q0.1 0.1 0.2 0.2c4.7 2.1 9.1 5.1 12.8 8.8 4 3.9 7.3 8.5 9.7 13.9zm-10.8 11.5q-0.7-2.9-1.9-5.8c-1.4-3.1-3.2-5.9-5.4-8.3-3.7-4-8.3-7.1-13.4-8.8q0 0-0.1 0c-5.9-2-12.5-2.2-18.8-0.4q-0.2 0.1-0.4 0.2-1.8 0.5-3.6 1.3c-6.4 2.8-11.4 7.6-14.6 13.2q0 0.1-0.1 0.2c-4.7 8.4-5.5 18.8-1.3 28.3 7.1 15.9 25.8 23.1 41.7 16 14-6.3 21.2-21.5 17.9-35.9z"/><path class="l" d="m133 544.7c4.7 2.1 9.1 5.1 12.8 8.8 4 3.9 7.3 8.5 9.7 13.9q1.3 2.9 2.1 5.8l-12.9 5.7q-0.7-2.9-1.9-5.8c-1.4-3.1-3.2-5.9-5.4-8.3-3.7-4-8.3-7.1-13.4-8.8h-0.1l8.9-11.5"/><path class="l" d="m133 544.7l-9 11.3"/><path class="b" d="m124 556h-0.1c-5.9-2-12.5-2.2-18.8-0.4q-0.2 0.1-0.4 0.2l-8.4-11.8c4.9-2.1 10-3.2 15.1-3.5 7.4-0.4 14.7 1 21.4 4"/><path class="y" d="m117.6 631.4v4"/><path class="z" d="m117.6 643.1v57.4"/><path class="y" d="m117.6 704.3v4h4"/><path class="z" d="m129.8 708.3h111.1"/><path class="y" d="m245 708.3h4v-4"/><path class="z" d="m249 696.5v-58.4"/><path class="y" d="m249 634.2v-4"/><path class="w" d="m586.8 626.4h-385.7v-459.8h385.7z"/><path class="x" d="m586.8 202.6h-385.7v-58.4h385.7z"/><path class="l" d="m542.1 594.8v3.8l-13.9 5.3v-3.7l9.8-3.5-9.8-3.6v-3.6z"/><path class="l" d="m502.7 589.5v3.6l-9.7 3.6 9.7 3.5v3.7l-13.9-5.3v-3.8z"/><path class="l" d="m508.8 609.1h4.3l10.3-29.4h-4.3z"/><path class="l" d="m292.4 239.8v4.7l-17.2 6.6v-4.6l12.1-4.4-12.1-4.4v-4.5z"/><path class="l" d="m260.6 233.2v4.5l-12.1 4.4 12.1 4.4v4.6l-17.3-6.6v-4.7z"/><path fill-rule="evenodd" class="p" d="m256 166.6l-6.3 19.4h-4.8l-4.3-13.1-4.4 13.1h-4.8l-6.3-19.4h4.6l4.4 13.6 4.6-13.6h4.1l4.4 13.8 4.6-13.8zm17.6 15.8v3.6h-15v-19.4h14.7v3.6h-10.2v4.2h9v3.5h-9v4.5zm21.4-1.7c0 3.4-2.6 5.3-7.7 5.3h-10v-19.4h9.4c4.9 0 7.4 2 7.4 5.1 0 1.9-1 3.4-2.6 4.2 2.2 0.7 3.5 2.4 3.5 4.8zm-13.3-10.7v4.6h4.5c2.2 0 3.4-0.8 3.4-2.3 0-1.6-1.2-2.3-3.4-2.3zm8.9 10.2c0-1.6-1.3-2.4-3.6-2.4h-5.2v4.8h5.2c2.3 0 3.6-0.7 3.6-2.4zm15.7-13.6h8.8c6.4 0 10.7 3.8 10.7 9.7 0 5.9-4.3 9.7-10.7 9.7h-8.8zm8.6 15.7c3.9 0 6.4-2.3 6.4-6 0-3.7-2.5-6-6.4-6h-4.1v12zm29.3 0.1v3.6h-15v-19.4h14.6v3.6h-10.2v4.2h9v3.5h-9v4.5zm21.9-15.8l-8.4 19.4h-4.4l-8.4-19.4h4.8l5.9 13.9 6-13.9zm16.5 15.8v3.6h-15v-19.4h14.7v3.6h-10.2v4.2h9v3.5h-9v4.5zm3.7-15.8h4.4v15.8h9.8v3.6h-14.2zm15.1 9.7c0-5.7 4.5-10 10.6-10 6.1 0 10.6 4.3 10.6 10 0 5.8-4.5 10.1-10.6 10.1-6.1 0-10.6-4.3-10.6-10.1zm16.7 0c0-3.6-2.6-6.2-6.1-6.2-3.4 0-6 2.6-6 6.2 0 3.7 2.6 6.2 6 6.2 3.5 0 6.1-2.5 6.1-6.2zm24.7-2.6c0 4.3-3.2 7-8.4 7h-3.9v5.3h-4.5v-19.3h8.4c5.2 0 8.4 2.6 8.4 7zm-4.5 0c0-2.1-1.4-3.4-4.1-3.4h-3.7v6.7h3.7c2.7 0 4.1-1.2 4.1-3.3zm7.7-7h4.5v19.3h-4.5zm26.9-0.1v19.4h-3.7l-9.7-11.8v11.8h-4.4v-19.4h3.7l9.6 11.7v-11.7zm17.6 9.4h4.1v7.8c-2.1 1.6-5.1 2.5-7.8 2.5-6.1 0-10.6-4.2-10.6-10 0-5.9 4.5-10.1 10.6-10.1 3.4 0 6.3 1.2 8.1 3.4l-2.8 2.7c-1.4-1.5-3.1-2.2-5-2.2-3.8 0-6.4 2.5-6.4 6.2 0 3.6 2.6 6.2 6.3 6.2 1.2 0 2.4-0.3 3.5-0.9z"/><path class="A" d="m381.1 299.9h-113.4v-20.8h113.4z"/><path class="l" d="m453.8 299.9h-56.7v-20.8h56.7z"/><path class="p" d="m544.9 299.9h-78.1v-20.8h78.1z"/><path class="A" d="m320.6 336.9h-52.9v-20.7h52.9z"/><path class="l" d="m425.4 336.9h-90.4v-20.7h90.4z"/><path class="p" d="m544.9 336.9h-104.7v-20.7h104.7z"/><path class="A" d="m337.4 374h-69.7v-20.8h69.7z"/><path class="l" d="m479.8 374h-131.1v-20.8h131.1z"/><path class="p" d="m544.9 374h-51.1v-20.8h51.1z"/><path class="A" d="m355.6 411.1h-87.9v-20.8h87.9z"/><path class="l" d="m453.8 411.1h-85.3v-20.8h85.3z"/><path class="p" d="m544.9 411.1h-78.1v-20.8h78.1z"/><path class="A" d="m306.3 448.1h-38.6v-20.7h38.6z"/><path class="l" d="m395.5 448.1h-76.3v-20.7h76.3z"/><path class="p" d="m544.9 448.1h-137.5v-20.7h137.5z"/><path class="A" d="m377.9 485.2h-110.2v-20.8h110.2z"/><path class="l" d="m425.4 485.2h-33.8v-20.8h33.8z"/><path class="p" d="m544.9 485.2h-104.7v-20.8h104.7z"/><path class="A" d="m411.1 522.3h-143.4v-20.8h143.4z"/><path class="l" d="m481.9 522.3h-58.7v-20.8h58.7z"/><path class="p" d="m544.9 522.3h-51.1v-20.8h51.1z"/><path class="A" d="m311.7 559.3h-44v-20.7h44z"/><path class="l" d="m377.9 559.3h-53.5v-20.7h53.5z"/><path class="p" d="m544.9 559.3h-153.3v-20.7h153.3z"/><path class="p" d="m564.3 559.3h-4.2v-280.2h4.2z"/><path class="p" d="m242.5 289.5c0 5.7-4.7 10.4-10.4 10.4-5.8 0-10.4-4.7-10.4-10.4 0-5.7 4.6-10.4 10.4-10.4 5.7 0 10.4 4.7 10.4 10.4z"/><path class="p" d="m242.5 326.6c0 5.7-4.7 10.3-10.4 10.3-5.8 0-10.4-4.6-10.4-10.3 0-5.8 4.6-10.4 10.4-10.4 5.7 0 10.4 4.6 10.4 10.4z"/><path class="p" d="m242.5 363.6c0 5.8-4.7 10.4-10.4 10.4-5.8 0-10.4-4.6-10.4-10.4 0-5.7 4.6-10.4 10.4-10.4 5.7 0 10.4 4.7 10.4 10.4z"/><path class="p" d="m242.5 400.7c0 5.7-4.7 10.4-10.4 10.4-5.8 0-10.4-4.7-10.4-10.4 0-5.7 4.6-10.4 10.4-10.4 5.7 0 10.4 4.7 10.4 10.4z"/><path class="p" d="m242.5 437.8c0 5.7-4.7 10.3-10.4 10.3-5.8 0-10.4-4.6-10.4-10.3 0-5.8 4.6-10.4 10.4-10.4 5.7 0 10.4 4.6 10.4 10.4z"/><path class="p" d="m242.5 474.8c0 5.8-4.7 10.4-10.4 10.4-5.8 0-10.4-4.6-10.4-10.4 0-5.7 4.6-10.4 10.4-10.4 5.7 0 10.4 4.7 10.4 10.4z"/><path class="p" d="m242.5 511.9c0 5.7-4.7 10.4-10.4 10.4-5.8 0-10.4-4.7-10.4-10.4 0-5.7 4.6-10.4 10.4-10.4 5.7 0 10.4 4.7 10.4 10.4z"/><path class="p" d="m242.5 549c0 5.7-4.7 10.3-10.4 10.3-5.8 0-10.4-4.6-10.4-10.3 0-5.8 4.6-10.4 10.4-10.4 5.7 0 10.4 4.6 10.4 10.4z"/><path class="b" d="m569.6 176.6c0 5.8-4.8 10.6-10.6 10.6-5.9 0-10.6-4.8-10.6-10.6 0-5.9 4.7-10.6 10.6-10.6 5.8 0 10.6 4.7 10.6 10.6z"/><path class="p" d="m543.4 176.4c0 5.9-4.8 10.6-10.7 10.6-5.9 0-10.6-4.7-10.6-10.6 0-5.9 4.7-10.7 10.6-10.7 5.9 0 10.7 4.8 10.7 10.7z"/><path class="t" d="m675.4 231.1h-37.3v-10.4h37.3z"/><path class="x" d="m752.4 212.5h-114.3v-10.5h114.3z"/><path class="y" d="m704.1 233.1v4"/><path class="B" d="m704.1 243.9v23.6"/><path class="y" d="m704.1 270.9v4h4"/><path class="z" d="m715.7 274.9h118.1"/><path class="y" d="m837.6 274.9h4v-4"/><path class="z" d="m841.6 262.8v-12.2"/><path class="y" d="m841.6 246.5v-4"/><path class="p" d="m653.5 174.6c5.1 0 9.1-1.9 11.6-5.2l-5.5-4.9c-1.5 1.9-3.3 3.1-5.6 3.1-3.6 0-6.1-2.6-6.1-6.5 0-3.9 2.5-6.4 6.1-6.4 2.3 0 4.1 1.1 5.6 3l5.5-4.9c-2.5-3.3-6.5-5.2-11.6-5.2-8.3 0-14.3 5.6-14.3 13.5 0 7.9 6 13.5 14.3 13.5zm23.4 0c8 0 12-4 12-8.7 0-9.5-14.3-6.9-14.3-10 0-0.9 0.8-1.7 3.4-1.7 2.2 0 4.6 0.7 7.1 2l2.7-6.3c-2.7-1.5-6.3-2.3-9.8-2.3-8 0-12 3.9-12 8.7 0 9.6 14.3 7 14.3 10.3 0 0.8-0.9 1.4-3.4 1.4-2.8 0-6.1-1-8.5-2.4l-2.8 6.3c2.6 1.6 6.9 2.7 11.3 2.7zm24.2 0c8 0 12-4 12-8.7 0-9.5-14.3-6.9-14.3-10 0-0.9 0.8-1.7 3.4-1.7 2.2 0 4.6 0.7 7.2 2l2.6-6.3c-2.7-1.5-6.3-2.3-9.8-2.3-8 0-12 3.9-12 8.7 0 9.6 14.3 7 14.3 10.3 0 0.8-0.9 1.4-3.4 1.4-2.8 0-6-1-8.5-2.4l-2.8 6.3c2.6 1.6 7 2.7 11.3 2.7z"/><path fill-rule="evenodd" class="x" d="m872.6 214.9c-2 9.7-8.4 18.3-18.1 22.7-15.9 7.1-34.6-0.1-41.7-16q-1.5-3.3-2.1-6.7c-1.6-7.8-0.1-15.8 3.9-22.5 3.2-5.3 8.1-9.7 14.2-12.5q0.3-0.1 0.6-0.3c3.4-1.4 7-2.2 10.5-2.4 5.1-0.2 10.2 0.7 14.8 2.8q0.1 0.1 0.2 0.1c3.2 1.5 6.3 3.6 8.9 6.1 2.7 2.7 5 6 6.7 9.7q0.8 2 1.4 4c1.5 5 1.7 10.1 0.7 15zm-10 0c1.1-3.5 1.2-7.3 0.4-11q-0.5-2.1-1.4-4.1-1.4-3.2-3.7-5.7c-2.5-2.8-5.8-4.9-9.3-6.1-4.2-1.4-8.7-1.6-13.1-0.3q-0.1 0.1-0.3 0.1-1.2 0.4-2.5 0.9c-4.4 2-7.9 5.3-10.1 9.2q0 0.1 0 0.1c-2.9 5-3.7 11.1-2 16.9q0.4 1.4 1 2.8c5 11 17.9 16 29 11 6-2.7 10.3-7.8 12-13.8z"/><path class="b" d="m872.6 214.9h-10c1.1-3.5 1.2-7.3 0.4-11q-0.5-2.1-1.4-4.1-1.4-3.2-3.7-5.7c-2.5-2.8-5.8-4.9-9.3-6.1-4.2-1.4-8.7-1.6-13.1-0.3q-0.1 0.1-0.3 0.1-1.2 0.4-2.5 0.9c-4.4 2-7.9 5.3-10.1 9.2q0 0.1 0 0.1c-2.9 5-3.7 11.1-2 16.9h-9.9c-1.6-7.8-0.1-15.8 3.9-22.5 3.2-5.3 8.1-9.7 14.2-12.5q0.3-0.1 0.6-0.3c3.4-1.4 7-2.2 10.5-2.4 5.1-0.2 10.2 0.7 14.8 2.8q0.1 0.1 0.2 0.1c3.2 1.5 6.3 3.6 8.9 6.1 2.7 2.7 5 6 6.7 9.7q0.8 2 1.4 4c1.5 5 1.7 10.1 0.7 15z"/><path class="x" d="m752.4 231.1h-69.5v-10.4h69.5z"/><path class="a" d="m115.7 167.4v-5c0-2.3 1.2-3.6 3.7-3.6h0.5v-9h-3.9c-8.2 0-12.3 4.1-12.3 11.3v6.6c0 1.6-0.9 2.3-2.3 2.3h-1.7v9h1.7c1.4 0 2.3 0.8 2.3 2.3v6.7c0 7.1 4.1 11.2 12.3 11.2h3.9v-8.9h-0.5c-2.5 0-3.7-1.4-3.7-3.7v-5c0-4.2-1.4-6.2-4.3-7.1 2.9-0.9 4.3-2.8 4.3-7.1zm39.6 2.6c-1.3 0-2.3-0.7-2.3-2.3v-6.6c0-7.2-4.1-11.3-12.3-11.3h-3.9v9h0.6c2.4 0 3.7 1.3 3.7 3.6v5c0 4.3 1.3 6.2 4.3 7.1-3 0.9-4.3 2.9-4.3 7.1v5c0 2.3-1.3 3.7-3.7 3.7h-0.6v8.9h3.9c8.2 0 12.3-4.1 12.3-11.2v-6.7c0-1.5 1-2.3 2.3-2.3h1.8v-9z"/><path class="p" d="m138.1 267.5h-41.1v-19.6h41.1z"/><path class="p" d="m138.1 301.7h-41.1v-19.6h41.1z"/><path class="l" d="m138.1 336h-41.1v-19.6h41.1z"/><path class="l" d="m138.1 370.2h-41.1v-19.6h41.1z"/><path class="l" d="m138.1 404.5h-41.1v-19.6h41.1z"/><path class="l" d="m138.1 438.7h-41.1v-19.6h41.1z"/><path class="l" d="m138.1 473h-41.1v-19.6h41.1z"/><path fill-rule="evenodd" class="a" d="m1305.1 636.7c2.2 1.5 4.4 3.2 6.4 5.2l-0.4 1.7c-0.4 2-1.2 3.9-1.9 5.8-0.4 1-0.8 1.9-1.3 2.8q-0.6 1.4-1.4 2.6l-1 1.6c-2.8 0-5.6-0.4-8.2-0.9-2.3-0.5-4.6-1.2-6.7-2q-0.2 0.3-0.5 0.6c0.7 2.1 1.5 4.4 1.9 6.7 0.5 2.6 0.9 5.4 0.9 8.2l-1.5 1q-1.3 0.8-2.7 1.4c-0.9 0.4-1.8 0.9-2.8 1.3-1.9 0.7-3.8 1.5-5.7 1.9l-1.8 0.4c-2-2-3.7-4.2-5.2-6.4-1.3-2-2.4-4.1-3.3-6.1q-0.2 0-0.4 0-0.2 0-0.4 0c-0.9 2-2 4.1-3.4 6.1-1.4 2.2-3.2 4.4-5.1 6.4l-1.8-0.4c-2-0.4-3.9-1.2-5.8-1.9-0.9-0.4-1.8-0.9-2.7-1.3-1-0.4-1.8-0.9-2.7-1.4l-1.5-1c0-2.8 0.4-5.6 0.8-8.2 0.5-2.3 1.2-4.6 2-6.7q-0.3-0.3-0.6-0.6c-2.1 0.8-4.3 1.5-6.6 2-2.6 0.5-5.5 0.9-8.3 0.9l-0.9-1.6q-0.8-1.2-1.5-2.6c-0.4-0.9-0.8-1.8-1.2-2.8-0.7-1.9-1.5-3.8-1.9-5.8l-0.5-1.7c2.1-2 4.3-3.7 6.5-5.2 2-1.3 4-2.4 6.1-3.3q0-0.2 0-0.4 0-0.2 0-0.4c-2.1-1-4.1-2.1-6.1-3.4-2.2-1.5-4.4-3.2-6.5-5.2l0.5-1.7c0.4-2 1.2-3.9 1.9-5.8q0.6-1.3 1.2-2.7 0.7-1.5 1.5-2.7l0.9-1.5c2.8 0 5.7 0.3 8.3 0.8 2.3 0.5 4.5 1.2 6.6 2q0.3-0.3 0.6-0.6c-0.8-2.1-1.5-4.3-2-6.7-0.4-2.6-0.8-5.4-0.8-8.2l1.5-0.9c0.9-0.6 1.7-1.1 2.7-1.5 0.9-0.4 1.8-0.9 2.7-1.3 1.9-0.7 3.8-1.4 5.8-1.8l1.8-0.5c1.9 2.1 3.7 4.2 5.1 6.4 1.4 2 2.5 4.1 3.4 6.2 0.1 0 0.2-0.1 0.4-0.1 0.1 0 0.3 0.1 0.4 0.1 0.9-2.1 2-4.2 3.3-6.2 1.5-2.2 3.2-4.3 5.2-6.4l1.8 0.5c1.9 0.4 3.8 1.1 5.7 1.8 1 0.4 1.9 0.9 2.8 1.3q1.4 0.7 2.7 1.5l1.5 0.9c0 2.8-0.4 5.6-0.9 8.2-0.4 2.4-1.2 4.6-1.9 6.7l0.5 0.6c2.1-0.8 4.4-1.5 6.7-2 2.6-0.5 5.4-0.8 8.2-0.8l1 1.5c0.5 0.8 1 1.7 1.4 2.7 0.5 0.9 0.9 1.8 1.3 2.7 0.7 1.9 1.5 3.8 1.9 5.8l0.4 1.7c-2 2-4.2 3.7-6.4 5.2-2 1.3-4.1 2.4-6.1 3.4q0 0.2 0 0.4 0 0.2 0 0.4c2 0.9 4.1 2 6.1 3.3zm-21.5-3.7c0-7.8-6.3-14.1-14.1-14.1-7.8 0-14.1 6.3-14.1 14.1 0 7.8 6.3 14.1 14.1 14.1 7.8 0 14.1-6.3 14.1-14.1z"/><path class="b" d="m1169.3 664.9h-18.7v-83.9h18.7z"/><path class="x" d="m1143.1 664.9h-19.9v-47h19.9z"/><path class="C" d="m1115.5 664.9h-20v-31.9h20z"/><path class="y" d="m1091.9 651.5h-4"/><path class="D" d="m1077.8 651.5h-15.2"/><path class="y" d="m1057.5 651.5h-4v4"/><path class="z" d="m1053.5 663v56.1"/><path class="y" d="m1053.5 722.9v4h4"/><path class="B" d="m1064.3 726.9h23.8"/><path class="y" d="m1091.5 726.9h4"/><path class="p" d="m1154.7 732.6h-52.9v-9.5h52.9z"/><path class="p" d="m1138.4 750h-36.6v-9.4h36.6z"/><path class="p" d="m1148.1 767.5h-46.3v-9.4h46.3z"/><path class="l" d="m1168.5 767.5h-10.8v-9.4h10.8z"/><path class="l" d="m1218.1 767.5h-39.7v-9.4h39.7z"/><path class="l" d="m1218.1 750h-68v-9.4h68z"/><path class="l" d="m1218.1 732.6h-52.8v-9.5h52.8z"/><path class="b" d="m1399.4 644.5h-34.8v-16.7h34.8z"/><path class="b" d="m1399.4 673.5h-34.8v-16.6h34.8z"/><path class="b" d="m1399.4 702.5h-34.8v-16.6h34.8z"/><path class="b" d="m1399.4 731.6h-34.8v-16.6h34.8z"/><path class="p" d="m1399.4 760.6h-34.8v-16.6h34.8z"/><path class="p" d="m1399.4 789.7h-34.8v-16.7h34.8z"/><path class="p" d="m1399.4 818.7h-34.8v-16.6h34.8z"/><path class="E" d="m1247.5 866.3c-13 1-23.9-2.1-33-7.7-36.7-22.8-44.4-86.9-44.9-91.7 0.3 1.5 3.9 9.3 42.1 35q4.8 3.2 8.8 6.5 0 0 0.1 0.1c33.3 27.6 26.9 57.8 26.9 57.8z"/><path class="F" d="m1169.6 766.6c0 0 34.3 84.2 72.3 93.1"/><path class="G" d="m1247.5 866.3c-13 1-23.9-2.1-33-7.7 7.3-17.3 6-50.2 6-50.2q0 0 0.1 0.1c33.3 27.6 26.9 57.8 26.9 57.8z"/><path class="E" d="m1345.1 771.6c-0.2 0.9-0.7 4-1.7 8.6-5.5 24.2-25 89.6-77.7 83 0 0-0.8-5.6 0.9-14 2.6-12.3 11-30.7 36.5-46 37.7-22.9 41.6-30.2 42-31.6z"/><path class="F" d="m1343.4 776.8c0 0-27 70-73.9 84.2"/><path class="G" d="m1343.4 780.2c-5.5 24.2-25 89.6-77.7 83 0 0-0.8-5.6 0.9-14h0.1c43.8 2.4 76.7-69 76.7-69z"/><path class="H" d="m1262.9 865.6c-1.3 2.2-20.5-5.8-29.2-28.9-5.2-13.9-6.6-33.2 2-59.1 22.6-67.8 13.3-80.6 13-81 0.5 0.2 20.1 10 32.7 33.7q0 0 0.1 0.1c13.9 26.1 19.3 69.2-18.6 135.2z"/><path class="I" d="m1248.7 696.6c0 0 29.5 37.1 18.2 107.8-11.2 70.6-4 61.2-4 61.2"/><path class="J" d="m1262.9 865.6c-1.3 2.2-20.5-5.8-29.2-28.9 48.5 13.8 47.7-106.4 47.7-106.4q0 0 0.1 0.1c13.9 26.1 19.3 69.2-18.6 135.2z"/><path class="E" d="m1169.5 766.6q0 0 0.1 0.2c-0.1-0.1-0.1-0.2-0.1-0.2z"/><path class="l" d="m1300.2 864.5v54.3c0 15.9-12.9 28.7-28.8 28.7h-25.5c-10.4 0-19.5-5.5-24.5-13.7-2.7-4.4-4.2-9.5-4.2-15v-54.3z"/><path class="l" d="m1303.2 857.5h-89c-1.2 0-2.2 1-2.2 2.1v2.8c0 1.2 1 2.1 2.2 2.1h89c1.2 0 2.1-0.9 2.1-2.1v-2.8c0-1.1-0.9-2.1-2.1-2.1z"/><path class="K" d="m1300.2 864.5v54.3c0 15.9-12.9 28.7-28.8 28.7h-25.5c-10.4 0-19.5-5.5-24.5-13.7 60.8 19 74-25.7 71.6-43.4-2.3-17.7-24.2-25.9-24.2-25.9z"/></svg>